<svg xmlns="http://www.w3.org/2000/svg" viewBox="0 0 52.32 52.33"><defs><style>.cls-1{fill:#3f3f41;fill-rule:evenodd;}</style></defs><title>Asset 3</title><g id="Layer_2" data-name="Layer 2"><g id="_18" data-name="18"><path class="cls-1" d="M10,0H24l-.62.82L10.28,16.28l-.74-.23V0ZM6.55,52.33H45.79v-22h6.53L26.15,1,0,30.36H6.55Zm26.63-16.4a7.63,7.63,0,0,1-.49,2.82,6.33,6.33,0,0,1-1.41,2.14,7.06,7.06,0,0,1-2.18,1.46,9.61,9.61,0,0,1-2.83.67l-.34,3.89a.6.6,0,0,1-.07.25.39.39,0,0,1-.21.18,1.22,1.22,0,0,1-.41.12,3.85,3.85,0,0,1-.67,0,5.63,5.63,0,0,1-.83,0,2,2,0,0,1-.47-.16A.43.43,0,0,1,23,47a.65.65,0,0,1,0-.36L23.34,43A9.71,9.71,0,0,1,22,42.71a8.18,8.18,0,0,1-1.11-.38,7.24,7.24,0,0,1-.87-.41,2.26,2.26,0,0,1-.54-.42,1.21,1.21,0,0,1-.26-.62,5.47,5.47,0,0,1-.1-1.21c0-.39,0-.74,0-1a3.26,3.26,0,0,1,.11-.62.79.79,0,0,1,.21-.31.5.5,0,0,1,.28-.07,1.25,1.25,0,0,1,.61.26c.28.18.62.39,1,.6a9.79,9.79,0,0,0,1.52.59,7.31,7.31,0,0,0,2.11.28,4.2,4.2,0,0,0,2.8-.78,2.65,2.65,0,0,0,.92-2.11,2.43,2.43,0,0,0-.39-1.42,3.78,3.78,0,0,0-1-1,8.54,8.54,0,0,0-1.5-.75l-1.7-.72a15.24,15.24,0,0,1-1.7-.88,7.19,7.19,0,0,1-1.49-1.24,6,6,0,0,1-1-1.8,8.28,8.28,0,0,1,0-5,6.06,6.06,0,0,1,1.18-1.95,5.8,5.8,0,0,1,1.87-1.34,8.75,8.75,0,0,1,2.5-.7L25.76,16a.54.54,0,0,1,.08-.25.43.43,0,0,1,.2-.18,1.34,1.34,0,0,1,.42-.11,3.83,3.83,0,0,1,.67,0,5.53,5.53,0,0,1,.82,0,1.47,1.47,0,0,1,.51.15.44.44,0,0,1,.23.26,1.34,1.34,0,0,1,0,.38l-.33,3.42c.31,0,.62.11,1,.2a7.11,7.11,0,0,1,.95.29,8.42,8.42,0,0,1,.79.38,1.92,1.92,0,0,1,.49.34,1.25,1.25,0,0,1,.21.31,1.65,1.65,0,0,1,.11.38c0,.15,0,.33,0,.54s0,.46,0,.72,0,.69,0,.93a2,2,0,0,1-.1.56.44.44,0,0,1-.15.25.26.26,0,0,1-.2.07,1.33,1.33,0,0,1-.61-.25,9.37,9.37,0,0,0-1-.49,9.13,9.13,0,0,0-1.36-.51,5.44,5.44,0,0,0-1.69-.25,5.09,5.09,0,0,0-1.42.18,2.68,2.68,0,0,0-1,.51,1.77,1.77,0,0,0-.56.79,2.7,2.7,0,0,0-.18,1,2.34,2.34,0,0,0,.41,1.42,3.46,3.46,0,0,0,1.06,1,10.93,10.93,0,0,0,1.52.77c.57.23,1.14.46,1.72.72a16,16,0,0,1,1.73.87,6.86,6.86,0,0,1,1.51,1.24,5.6,5.6,0,0,1,1.06,1.77,6.74,6.74,0,0,1,.41,2.5Z"/></g></g></svg>